<svg width="20" height="20" viewBox="0 0 20 20" fill="none" xmlns="http://www.w3.org/2000/svg">
<g clip-path="url(#clip0_127_123)">
<rect width="20" height="20" rx="10" fill="white" fill-opacity="0.15"/>
<path d="M9.00662 14.3153C8.88867 14.3158 8.77325 14.2812 8.67504 14.2159C8.57684 14.1505 8.5003 14.0575 8.45516 13.9485C8.41002 13.8395 8.39832 13.7196 8.42156 13.604C8.44481 13.4883 8.50193 13.3822 8.58567 13.2992L11.7361 10.1487L8.58567 6.9982C8.47402 6.88656 8.4113 6.73514 8.4113 6.57725C8.4113 6.41936 8.47402 6.26794 8.58567 6.1563C8.69731 6.04465 8.84873 5.98193 9.00662 5.98193C9.16451 5.98193 9.31593 6.04465 9.42757 6.1563L12.999 9.72773C13.0543 9.783 13.0981 9.84863 13.1281 9.92086C13.158 9.99308 13.1734 10.0705 13.1734 10.1487C13.1734 10.2269 13.158 10.3043 13.1281 10.3765C13.0981 10.4487 13.0543 10.5144 12.999 10.5696L9.42757 14.1411C9.37235 14.1964 9.30673 14.2403 9.23449 14.2702C9.16225 14.3001 9.08481 14.3155 9.00662 14.3153Z" fill="white"/>
</g>
<defs>
<clipPath id="clip0_127_123">
<rect width="20" height="20" rx="10" fill="white"/>
</clipPath>
</defs>
</svg>
