<svg width="21" height="25" viewBox="0 0 21 25" fill="none" xmlns="http://www.w3.org/2000/svg">
<path d="M16.9625 2.83406L10.6975 0.745088C10.4923 0.676768 10.2706 0.676768 10.0655 0.745088L3.80047 2.83406C2.80438 3.16493 1.93789 3.8013 1.32412 4.65274C0.710344 5.50418 0.380508 6.52739 0.381472 7.57698V12.6939C0.381472 20.2568 9.58147 24.4337 9.97547 24.6077C10.1033 24.6645 10.2416 24.6938 10.3815 24.6938C10.5213 24.6938 10.6596 24.6645 10.7875 24.6077C11.1815 24.4337 20.3815 20.2568 20.3815 12.6939V7.57698C20.3824 6.52739 20.0526 5.50418 19.4388 4.65274C18.8251 3.8013 17.9586 3.16493 16.9625 2.83406ZM15.0995 10.4109L10.8275 14.6829C10.6527 14.8589 10.4446 14.9984 10.2154 15.0933C9.98627 15.1882 9.74053 15.2367 9.49247 15.2359H9.45947C9.20636 15.232 8.95667 15.1768 8.72549 15.0737C8.49431 14.9706 8.28645 14.8216 8.11447 14.6359L5.80847 12.2359C5.7086 12.1433 5.62872 12.0312 5.57372 11.9065C5.51873 11.7819 5.48978 11.6473 5.48865 11.5111C5.48753 11.3749 5.51425 11.2399 5.56717 11.1143C5.6201 10.9888 5.69812 10.8754 5.79644 10.7811C5.89476 10.6868 6.01131 10.6136 6.13895 10.566C6.26658 10.5184 6.4026 10.4973 6.53866 10.5041C6.67472 10.5109 6.80795 10.5455 6.93018 10.6056C7.05241 10.6658 7.16107 10.7503 7.24947 10.8539L9.49347 13.1939L13.6815 8.99396C13.8701 8.81181 14.1227 8.71101 14.3849 8.71329C14.6471 8.71557 14.8979 8.82074 15.0833 9.00614C15.2687 9.19155 15.3739 9.44236 15.3761 9.70455C15.3784 9.96674 15.2776 10.2193 15.0955 10.4079L15.0995 10.4109Z" fill="url(#paint0_linear_0_117)"/>
<path d="M16.9625 2.83406L10.6975 0.745088C10.4923 0.676768 10.2706 0.676768 10.0655 0.745088L3.80047 2.83406C2.80438 3.16493 1.93789 3.8013 1.32412 4.65274C0.710344 5.50418 0.380508 6.52739 0.381472 7.57698V12.6939C0.381472 20.2568 9.58147 24.4337 9.97547 24.6077C10.1033 24.6645 10.2416 24.6938 10.3815 24.6938C10.5213 24.6938 10.6596 24.6645 10.7875 24.6077C11.1815 24.4337 20.3815 20.2568 20.3815 12.6939V7.57698C20.3824 6.52739 20.0526 5.50418 19.4388 4.65274C18.8251 3.8013 17.9586 3.16493 16.9625 2.83406ZM15.0995 10.4109L10.8275 14.6829C10.6527 14.8589 10.4446 14.9984 10.2154 15.0933C9.98627 15.1882 9.74053 15.2367 9.49247 15.2359H9.45947C9.20636 15.232 8.95667 15.1768 8.72549 15.0737C8.49431 14.9706 8.28645 14.8216 8.11447 14.6359L5.80847 12.2359C5.7086 12.1433 5.62872 12.0312 5.57372 11.9065C5.51873 11.7819 5.48978 11.6473 5.48865 11.5111C5.48753 11.3749 5.51425 11.2399 5.56717 11.1143C5.6201 10.9888 5.69812 10.8754 5.79644 10.7811C5.89476 10.6868 6.01131 10.6136 6.13895 10.566C6.26658 10.5184 6.4026 10.4973 6.53866 10.5041C6.67472 10.5109 6.80795 10.5455 6.93018 10.6056C7.05241 10.6658 7.16107 10.7503 7.24947 10.8539L9.49347 13.1939L13.6815 8.99396C13.8701 8.81181 14.1227 8.71101 14.3849 8.71329C14.6471 8.71557 14.8979 8.82074 15.0833 9.00614C15.2687 9.19155 15.3739 9.44236 15.3761 9.70455C15.3784 9.96674 15.2776 10.2193 15.0955 10.4079L15.0995 10.4109Z" fill="white"/>
<defs>
<linearGradient id="paint0_linear_0_117" x1="4.42402" y1="0.693847" x2="24.4157" y2="24.2181" gradientUnits="userSpaceOnUse">
<stop stop-color="#3081E8"/>
<stop offset="1" stop-color="#1B4882"/>
</linearGradient>
</defs>
</svg>
