<svg width="24" height="24" viewBox="0 0 24 24" fill="none" xmlns="http://www.w3.org/2000/svg">
<path d="M1.33228 11.3379C3.58294 10.0452 6.09529 8.96618 8.4427 7.8817C12.4812 6.10541 16.5357 4.3599 20.6311 2.73486C21.4279 2.45798 22.8596 2.18725 23 3.41857C22.9231 5.16157 22.6069 6.89436 22.39 8.62715C21.8395 12.4377 21.2031 16.2352 20.5826 20.0333C20.3688 21.2984 18.8491 21.9533 17.8766 21.1437C15.5396 19.4976 13.1847 17.8675 10.8775 16.1832C10.1218 15.3824 10.8226 14.2324 11.4976 13.6605C13.4224 11.6825 15.4637 10.0019 17.2879 7.9216C17.78 6.68252 16.326 7.72677 15.8464 8.04677C13.2114 9.94035 10.6408 11.9495 7.86258 13.6137C6.44348 14.4283 4.78949 13.7322 3.37103 13.2777C2.09923 12.7285 0.235663 12.1751 1.33228 11.3379Z" fill="#2A2A2A"/>
</svg>
