<svg width="24" height="24" viewBox="0 0 24 24" fill="none" xmlns="http://www.w3.org/2000/svg">
<path d="M23.4951 6.20474C23.356 5.7065 23.0908 5.25256 22.725 4.88679C22.3593 4.52102 21.9053 4.25579 21.4071 4.11674C19.5371 3.61574 12.0111 3.61574 12.0111 3.61574C12.0111 3.61574 4.5041 3.60574 2.6151 4.11674C2.11686 4.25579 1.66292 4.52102 1.29715 4.88679C0.931378 5.25256 0.66615 5.7065 0.527099 6.20474C0.172619 8.11925 -0.00214064 10.0627 0.00509881 12.0098C-0.000772058 13.9495 0.173982 15.8855 0.527099 17.7928C0.66615 18.291 0.931378 18.745 1.29715 19.1107C1.66292 19.4765 2.11686 19.7417 2.6151 19.8808C4.4831 20.3828 12.0111 20.3828 12.0111 20.3828C12.0111 20.3828 19.5171 20.3828 21.4071 19.8808C21.9053 19.7417 22.3593 19.4765 22.725 19.1107C23.0908 18.745 23.356 18.291 23.4951 17.7928C23.8408 15.8848 24.0082 13.9488 23.9951 12.0098C24.0096 10.0634 23.8422 8.11994 23.4951 6.20474ZM9.6091 15.6008V8.40774L15.8731 12.0098L9.6091 15.6008Z" fill="#2A2A2A"/>
</svg>
