<svg width="244" height="36" viewBox="0 0 244 36" fill="none" xmlns="http://www.w3.org/2000/svg">
<g clip-path="url(#clip0_11_700)">
<path d="M166.103 14.653C166.103 12.2175 167.91 10.4985 170.454 10.4985C172.02 10.4985 173.269 11.1515 173.887 12.3851L172.44 13.2374C171.957 12.4602 171.234 12.1106 170.437 12.1106C169.05 12.1106 167.998 13.0842 167.998 14.653C167.998 16.2218 169.053 17.1954 170.437 17.1954C171.234 17.1954 171.957 16.8458 172.44 16.0687L173.887 16.9209C173.269 18.1372 172.02 18.8219 170.454 18.8219C167.91 18.8219 166.103 17.0856 166.103 14.653Z" fill="black"/>
<path d="M174.538 14.653C174.538 12.2175 176.345 10.4985 178.814 10.4985C181.284 10.4985 183.105 12.2175 183.105 14.653C183.105 17.0885 181.313 18.8219 178.814 18.8219C176.316 18.8219 174.538 17.0856 174.538 14.653ZM181.21 14.653C181.21 13.1016 180.186 12.1106 178.814 12.1106C177.442 12.1106 176.436 13.0987 176.436 14.653C176.436 16.2073 177.46 17.1954 178.814 17.1954C180.169 17.1954 181.21 16.2073 181.21 14.653Z" fill="black"/>
<path d="M192.543 14.0608V18.7179H190.66V14.3034C190.66 12.856 189.951 12.1569 188.747 12.1569C187.407 12.1569 186.504 12.9802 186.504 14.6068V18.715H184.62V10.5881H186.412V11.6397C187.029 10.8943 188.007 10.4985 189.182 10.4985C191.108 10.4985 192.54 11.6108 192.54 14.0608" fill="black"/>
<path d="M193.81 17.9119L194.533 16.4674C195.242 16.9383 196.325 17.2734 197.334 17.2734C198.523 17.2734 199.02 16.9383 199.02 16.3749C199.02 14.8235 194.053 16.2824 194.053 13.0409C194.053 11.5039 195.422 10.4985 197.591 10.4985C198.66 10.4985 199.881 10.7586 200.604 11.1977L199.881 12.6422C199.112 12.1858 198.346 12.0326 197.577 12.0326C196.434 12.0326 195.89 12.414 195.89 12.9456C195.89 14.5895 200.858 13.1276 200.858 16.3084C200.858 17.831 199.472 18.819 197.214 18.819C195.873 18.819 194.533 18.4232 193.812 17.9061" fill="black"/>
<path d="M210.002 10.5908V18.7178H208.21V17.6835C207.607 18.4288 206.658 18.8247 205.62 18.8247C203.557 18.8247 202.156 17.6835 202.156 15.2335V10.5908H204.037V14.9735C204.037 16.4498 204.729 17.149 205.921 17.149C207.23 17.149 208.119 16.3285 208.119 14.6991V10.5908H210.002Z" fill="black"/>
<path d="M213.964 7.42432H212.083V18.7177H213.964V7.42432Z" fill="black"/>
<path d="M220.959 18.2754C220.507 18.6394 219.83 18.8243 219.152 18.8243C217.391 18.8243 216.382 17.8796 216.382 16.0855V12.1736H215.056V10.6511H216.382V8.79346H218.263V10.6511H220.416V12.1736H218.263V16.0392C218.263 16.8308 218.655 17.2555 219.378 17.2555C219.77 17.2555 220.147 17.1486 220.433 16.9204L220.959 18.2754Z" fill="black"/>
<path d="M221.839 8.10896C221.839 7.47047 222.351 6.96777 223.045 6.96777C223.74 6.96777 224.249 7.43868 224.249 8.06272C224.249 8.73299 223.751 9.25012 223.045 9.25012C222.339 9.25012 221.839 8.74744 221.839 8.10896ZM222.096 10.5907H223.977V18.7176H222.096V10.5907Z" fill="black"/>
<path d="M233.967 14.0608V18.7179H232.083V14.3034C232.083 12.856 231.375 12.1569 230.171 12.1569C228.831 12.1569 227.927 12.9802 227.927 14.6068V18.715H226.044V10.5881H227.836V11.6397C228.453 10.8943 229.431 10.4985 230.606 10.4985C232.532 10.4985 233.964 11.6108 233.964 14.0608" fill="black"/>
<path d="M243.997 10.591V17.4843C243.997 20.4369 242.476 21.7746 239.661 21.7746C238.155 21.7746 236.665 21.3788 235.745 20.6189L236.588 19.1888C237.297 19.7811 238.44 20.1625 239.555 20.1625C241.333 20.1625 242.116 19.342 242.116 17.6981V17.2705C241.453 18.0014 240.504 18.351 239.421 18.351C237.117 18.351 235.356 16.7678 235.356 14.4103C235.356 12.0529 237.117 10.4985 239.421 10.4985C240.55 10.4985 241.545 10.8626 242.208 11.6715V10.591H244H243.997ZM242.145 14.4103C242.145 13.0409 241.122 12.1135 239.707 12.1135C238.292 12.1135 237.251 13.0409 237.251 14.4103C237.251 15.7798 238.275 16.7389 239.707 16.7389C241.139 16.7389 242.145 15.7942 242.145 14.4103Z" fill="black"/>
<path d="M174.736 21.8678V28.6103C174.736 31.4984 173.216 32.8068 170.404 32.8068C168.899 32.8068 167.411 32.4196 166.492 31.6764L167.334 30.2776C168.042 30.8569 169.184 31.2299 170.298 31.2299C172.074 31.2299 172.857 30.4274 172.857 28.8195V28.4012C172.194 29.1162 171.246 29.4581 170.164 29.4581C167.862 29.4581 166.103 27.9095 166.103 25.6036C166.103 23.2977 167.862 21.7773 170.164 21.7773C171.292 21.7773 172.286 22.1334 172.948 22.9247V21.8678H174.738H174.736ZM172.885 25.6036C172.885 24.2641 171.863 23.357 170.449 23.357C169.036 23.357 167.997 24.2641 167.997 25.6036C167.997 26.9431 169.019 27.8813 170.449 27.8813C171.88 27.8813 172.885 26.9572 172.885 25.6036Z" fill="black"/>
<path d="M181.463 21.7772V23.5491C181.298 23.518 181.163 23.5039 181.026 23.5039C179.599 23.5039 178.693 24.3375 178.693 25.9595V29.814H176.814V21.8648H178.605V23.0263C179.147 22.1927 180.124 21.7744 181.463 21.7744" fill="black"/>
<path d="M182.06 25.841C182.06 23.4587 183.865 21.7773 186.332 21.7773C188.799 21.7773 190.618 23.4587 190.618 25.841C190.618 28.2232 188.828 29.9187 186.332 29.9187C183.836 29.9187 182.06 28.2204 182.06 25.841ZM188.725 25.841C188.725 24.3235 187.703 23.3542 186.332 23.3542C184.961 23.3542 183.956 24.3206 183.956 25.841C183.956 27.3613 184.978 28.3277 186.332 28.3277C187.685 28.3277 188.725 27.3613 188.725 25.841Z" fill="black"/>
<path d="M199.882 21.8672V29.8164H198.091V28.8047C197.489 29.5338 196.541 29.9209 195.504 29.9209C193.442 29.9209 192.043 28.8047 192.043 26.4084V21.8672H193.922V26.154C193.922 27.5981 194.613 28.2819 195.804 28.2819C197.112 28.2819 198 27.4794 198 25.8856V21.8672H199.882Z" fill="black"/>
<path d="M210.493 25.841C210.493 28.3136 208.763 29.9187 206.415 29.9187C205.393 29.9187 204.491 29.5768 203.842 28.8477V32.7022H201.964V21.8649H203.754V22.9077C204.385 22.1475 205.319 21.7773 206.415 21.7773C208.763 21.7773 210.493 23.3853 210.493 25.841ZM208.583 25.841C208.583 24.3235 207.56 23.3542 206.207 23.3542C204.853 23.3542 203.814 24.3206 203.814 25.841C203.814 27.3613 204.853 28.3277 206.207 28.3277C207.56 28.3277 208.583 27.3613 208.583 25.841Z" fill="black"/>
<path fill-rule="evenodd" clip-rule="evenodd" d="M50.3248 12.3207H45.8898V20.6233H50.3248C53.6468 20.6233 55.3293 19.0582 55.3293 16.4778C55.3293 13.8974 53.6497 12.3236 50.3248 12.3236M75.905 13.2436L72.1767 22.359H79.6447L75.905 13.2436ZM75.905 13.2436L72.1767 22.359H79.6447L75.905 13.2436ZM21.8204 3.88224V7.83679H26.7132C33.0053 7.83679 36.9396 11.1347 36.9396 16.4807C36.9396 21.8267 33.0081 25.0783 26.7132 25.0783H21.9749V31.6365H16.5298V12.6679H13.1334V21.4506H4.44648V35.7762H155.221V3.88513H21.8204V3.88224ZM97.1216 7.83679L100.549 12.7084L97.2104 17.4643L90.4433 7.83968H97.1245L97.1216 7.83679ZM55.4351 31.6365L50.8914 25.0089H45.8869V31.6365H40.4304V7.83679H50.6224C56.9058 7.83679 60.843 11.1347 60.843 16.4807C60.843 20.0447 59.0633 22.6628 56.0045 23.9877L61.2837 31.6365H55.4323H55.4351ZM83.4388 31.6365L81.3615 26.545H70.4284L68.3397 31.6365H62.763L73.2525 7.83679H78.629L89.1557 31.6365H83.436H83.4388ZM107.165 31.6365L101.886 24.1208L96.6094 31.6365H89.9169L98.5437 19.3678L101.883 14.6148L106.647 7.83968H113.34L105.236 19.3678L113.863 31.6365H107.162H107.165ZM121.901 31.6365H116.456V7.83679H121.901V31.6365ZM135.169 32.0472C131.429 32.0472 127.666 30.9219 125.577 29.2961L127.434 25.1506C129.414 26.6086 132.376 27.6269 135.197 27.6269C138.43 27.6269 139.741 26.545 139.741 25.0783C139.741 20.6262 126.058 23.684 126.058 14.8462C126.058 10.7991 129.286 7.43468 135.978 7.43468C138.94 7.43468 141.961 8.14923 144.144 9.54649L142.465 13.718C140.282 12.4683 138.03 11.8521 135.941 11.8521C132.716 11.8521 131.469 13.0758 131.469 14.5801C131.469 18.957 145.152 15.9368 145.152 24.6675C145.152 28.6423 141.89 32.0501 135.171 32.0501M72.1824 22.3619H79.6505L75.9107 13.2465L72.1824 22.3619ZM31.4316 16.4836C31.4316 13.8655 29.752 12.3294 26.4185 12.3294H21.9806V20.5944H26.4185C29.7491 20.5944 31.4316 19.0669 31.4316 16.4836ZM75.9107 13.2494L72.1824 22.3648H79.6505L75.9107 13.2494ZM75.9107 13.2494L72.1824 22.3648H79.6505L75.9107 13.2494ZM9.17911 8.7683L0.506458 9.28033L0 0.512044L8.67265 0L9.17911 8.7683ZM20.6902 10.8917L12.009 11.2157L11.6913 2.4387L20.3726 2.11469L20.693 10.8917H20.6902ZM11.5683 20.1112L2.88994 20.4757L2.52941 11.7017L11.2078 11.3372L11.5683 20.1112Z" fill="#004FB4"/>
</g>
<defs>
<clipPath id="clip0_11_700">
<rect width="244" height="36" fill="white"/>
</clipPath>
</defs>
</svg>
